<svg width="672" height="249" viewBox="0 0 672 249" fill="none" xmlns="http://www.w3.org/2000/svg">
<path d="M653.336 246.757L641.018 218.048H593.463L581.001 246.757H576.99L620.964 145.77H627.553L671.384 246.757H653.336ZM594.752 215.163H639.728L617.24 163.227L594.752 215.163Z" fill="black"/>
<path d="M552.459 235.793C554.75 240.265 558.188 244.738 561.196 246.757H542.289C539.281 244.738 536.846 241.419 535.27 238.39L520.946 210.546C519.371 207.661 516.792 204.92 513.498 203.477H492.872V246.757H475.826V145.77H516.936C537.848 145.77 553.891 157.889 553.891 174.624C553.891 189.483 541.286 200.736 523.668 203.044C531.546 204.776 538.135 208.671 541.143 215.019L552.459 235.793ZM492.872 148.656V200.592H513.211C527.105 200.592 536.273 190.349 536.273 174.624C536.273 158.899 527.105 148.656 513.211 148.656H492.872Z" fill="black"/>
<path d="M421.174 194.388C437.647 197.418 448.962 206.795 448.962 220.501C448.962 235.649 435.212 246.757 417.737 246.757H367.603V145.77H413.439C431.344 145.77 444.665 156.734 444.665 170.584C444.665 182.27 435.498 190.782 421.174 194.388ZM407.28 148.656H384.649V193.378H405.132C418.453 193.378 427.047 185.732 427.047 171.306C427.047 157.312 419.312 148.656 407.28 148.656ZM411.577 243.872C423.609 243.872 431.344 234.783 431.344 220.356C431.344 202.034 419.455 196.264 409.429 196.264H384.649V243.872H411.577Z" fill="black"/>
<path d="M315.662 145.77H333.28V246.757H316.235V152.118L275.985 221.366H273.693L233.443 152.118V246.757H230.005V145.77H248.77L282.144 203.044L315.662 145.77Z" fill="black"/>
<path d="M148.762 248.2C118.538 248.2 95.9067 225.839 95.9067 196.264C95.9067 166.689 118.538 144.327 148.762 144.327C178.841 144.327 201.616 166.689 201.616 196.264C201.616 225.839 178.841 248.2 148.762 248.2ZM148.762 245.315C169.961 245.315 183.998 225.839 183.998 196.264C183.998 166.689 169.961 147.213 148.762 147.213C127.419 147.213 113.525 166.689 113.525 196.264C113.525 225.839 127.419 245.315 148.762 245.315Z" fill="black"/>
<path d="M37.3851 248.2C16.6156 248.2 0 236.082 0 220.212H3.15123C3.15123 234.206 16.9021 244.593 34.6636 244.593C49.99 244.593 61.0194 237.236 61.0194 226.704C61.0194 215.307 48.4144 209.969 34.0906 204.054C19.3371 197.995 1.86209 190.926 1.86209 172.748C1.86209 155.869 17.1886 144.327 37.8148 144.327C56.579 144.327 71.046 155.58 71.046 170.728H67.8948C67.8948 157.456 56.006 147.79 40.3931 147.79C25.9261 147.79 15.1832 155.725 15.1832 166.256C15.1832 178.23 28.7908 183.857 42.5417 189.195C58.8708 195.542 74.9134 201.89 74.9134 219.491C74.9134 236.659 59.4437 248.2 37.3851 248.2Z" fill="black"/>
<path d="M562.506 100.987L550.187 72.278H502.632L490.171 100.987H486.16L530.134 0H536.723L580.554 100.987H562.506ZM503.922 69.3926H548.898L526.41 17.4564L503.922 69.3926Z" fill="black"/>
<path d="M415.89 98.1018H467.598V100.987H398.844V0H415.89V98.1018Z" fill="black"/>
<path d="M320.955 98.1018H372.664V100.987H303.91V0H320.955V98.1018Z" fill="black"/>
<path d="M221.685 98.1018H276.975V100.987H204.639V0H275.542V2.88535H221.685V48.3296H264.083V51.2149H221.685V98.1018Z" fill="black"/>
<path d="M149.987 48.6181C166.46 51.6477 177.776 61.0251 177.776 74.7305C177.776 89.8786 164.025 100.987 146.55 100.987H96.4164V0H142.253C160.157 0 173.478 10.9643 173.478 24.814C173.478 36.4997 164.311 45.0114 149.987 48.6181ZM136.093 2.88535H113.462V47.6082H133.945C147.266 47.6082 155.86 39.9621 155.86 25.5353C155.86 11.5414 148.125 2.88535 136.093 2.88535ZM140.39 98.1018C152.422 98.1018 160.157 89.013 160.157 74.5862C160.157 56.2643 148.269 50.4936 138.242 50.4936H113.462V98.1018H140.39Z" fill="black"/>
</svg>
